{"title":"[MARATHI] Alibaba Aani Chalis Chor x264 - Animation - Kids [TMB]","uid":8386633,"size":73016021,"categoryP":"video","categoryS":"other","magnet":"?xt=urn:btih:230dca9adc9f028e0dc3e032508039391c2e2cc7&amp;dn=%5BMARATHI%5D+Alibaba+Aani+Chalis+Chor+x264+-+Animation+-+Kids+%5BTMB%5D&amp;tr=udp%3A%2F%2Ftracker.openbittorrent.com%3A80&amp;tr=udp%3A%2F%2Fopen.demonii.com%3A1337&amp;tr=udp%3A%2F%2Ftracker.coppersurfer.tk%3A6969&amp;tr=udp%3A%2F%2Fexodus.desync.com%3A6969","seeders":0,"leechers":1,"uploader":"SJonam","files":1,"time":1366302023,"description":" &lt;a href=&quot;http://desibbrg.org/images/66952052392581364616.gif&quot; rel=&quot;nofollow&quot; target=&quot;_NEW&quot;&gt;http://desibbrg.org/images/66952052392581364616.gif&lt;/a&gt; &lt;a href=&quot;\nhttp://desibbrg.org/images/94364997113228859652.png&quot; rel=&quot;nofollow&quot; target=&quot;_NEW&quot;&gt;\nhttp://desibbrg.org/images/94364997113228859652.png&lt;/a&gt; &lt;a href=&quot;\nhttp://desibbrg.org/images/93868012916156674340.png&quot; rel=&quot;nofollow&quot; target=&quot;_NEW&quot;&gt;\nhttp://desibbrg.org/images/93868012916156674340.png&lt;/a&gt; &lt;a href=&quot;\nhttp://desibbrg.org/images/56828077755991284559.png&quot; rel=&quot;nofollow&quot; target=&quot;_NEW&quot;&gt;\nhttp://desibbrg.org/images/56828077755991284559.png&lt;/a&gt; &lt;a href=&quot;\nhttp://desibbrg.org/images/86702572565267615479.png&quot; rel=&quot;nofollow&quot; target=&quot;_NEW&quot;&gt;\nhttp://desibbrg.org/images/86702572565267615479.png&lt;/a&gt;\n\nMedia Info - \nVideo\nFormat                         : AVC\nFormat/Info                    : Advanced Video Codec\nFormat profile                 : &lt;a class=&quot;__cf_email__&quot; href=&quot;/cdn-cgi/l/email-protection&quot; data-cfemail=&quot;195478707759552b3728&quot;&gt;[email&amp;#160;protected]&lt;/a&gt;&lt;script cf-hash='f9e31' type=&quot;text/javascript&quot;&gt;\n/* &lt;![CDATA[ */!function(){try{var t=&quot;currentScript&quot;in document?document.currentScript:function(){for(var t=document.getElementsByTagName(&quot;script&quot;),e=t.length;e--;)if(t[e].getAttribute(&quot;cf-hash&quot;))return t[e]}();if(t&amp;&amp;t.previousSibling){var e,r,n,i,c=t.previousSibling,a=c.getAttribute(&quot;data-cfemail&quot;);if(a){for(e=&quot;&quot;,r=parseInt(a.substr(0,2),16),n=2;a.length-n;n+=2)i=parseInt(a.substr(n,2),16)^r,e+=String.fromCharCode(i);e=document.createTextNode(e),c.parentNode.replaceChild(e,c)}}}catch(u){}}();/* ]]&gt; */&lt;/script&gt;\nFormat settings, CABAC         : Yes\nFormat settings, ReFrames      : 4 frames\nCodec ID                       : avc1\nCodec ID/Info                  : Advanced Video Coding\nDuration                       : 28mn 11s\nBit rate mode                  : Variable\nBit rate                       : 199 Kbps\nWidth                          : 474 pixels\nHeight                         : 236 pixels\nDisplay aspect ratio           : 2.008\nFrame rate mode                : Constant\nFrame rate                     : 25.000 fps\nColor space                    : YUV\nChroma subsampling             : 4:2:0\nBit depth                      : 8 bits\nScan type                      : Progressive\nBits/(Pixel*Frame)             : 0.071\nStream size                    : 40.2 MiB (58%)\nWriting library                : x264 core 120\n\nAudio\nFormat                         : AAC\nFormat/Info                    : Advanced Audio Codec\nFormat profile                 : LC\nCodec ID                       : 40\nDuration                       : 28mn 11s\nBit rate mode                  : Variable\nBit rate                       : 144 Kbps\nMaximum bit rate               : 213 Kbps\nChannel(s)                     : 2 channels\nChannel positions              : Front: L R\nSampling rate                  : 44.1 KHz\nCompression mode               : Lossy\nDelay relative to video        : 80ms\nStream size                    : 28.6 MiB (41%)\n\nRipper : Saket\n\nSeeding 24x7... Extreme Seeding...\n\n\nEnjoy!\n","torrent":{"xt":"urn:btih:230dca9adc9f028e0dc3e032508039391c2e2cc7","amp;dn":"%5BMARATHI%5D+Alibaba+Aani+Chalis+Chor+x264+-+Animation+-+Kids+%5BTMB%5D","amp;tr":["udp%3A%2F%2Ftracker.openbittorrent.com%3A80","udp%3A%2F%2Fopen.demonii.com%3A1337","udp%3A%2F%2Ftracker.coppersurfer.tk%3A6969","udp%3A%2F%2Fexodus.desync.com%3A6969"],"infoHash":"230dca9adc9f028e0dc3e032508039391c2e2cc7","infoHashBuffer":{"type":"Buffer","data":[35,13,202,154,220,159,2,142,13,195,224,50,80,128,57,57,28,46,44,199]},"announce":[],"urlList":[]}}